# xmcd
#
# Track frame offsets:
#	150
#	28200
#	52647
#	77767
#	104577
#	126872
#
# Disc length: 2135 seconds
#
# Revision: 2
# Processed by: cddbd v1.4PL0 Copyright (c) Steve Scherf et al.
# Submitted via: EZCDDA 4.3.2
#
DISCID=46085506
DTITLE=hh - ghj
DYEAR=1900
DGENRE=
TTITLE0=CRYSTAL SIERRA XX PLAYA NO MORE(REMIX)
TTITLE1=PLUBLIC ANNOUNCEMENT XX MAMACITA(REMIX)
TTITLE2=JAY-Z XX I JUST WANNA LOVE YOU(GIVE IT TO ME)(REMIX)
TTITLE3=T-BOZ XX MY GETAWAY(REMIX)
TTITLE4=CHANTE MOORE XX STRAIGHT UP(REMIX)
TTITLE5=S.P.M XX YOU KNOW MY NAME(REMIX)
EXTD=
EXTT0=
EXTT1=
EXTT2=
EXTT3=
EXTT4=
EXTT5=
PLAYORDER=
